HIERARCHY
ROOT ui
{
	 OFFSET 0 0 0
	 CHANNELS 3 XPosition YPosition Z Position
	 EndSite
	 {
	 OFFSET 0 -1 0
	 }
}
ROOT li
{
	 OFFSET 0 0 0
	 CHANNELS 3 XPosition YPosition Z Position
	 EndSite
	 {
	 OFFSET 0 -1 0
	 }
}
ROOT ul
{
	 OFFSET 0 0 0
	 CHANNELS 3 XPosition YPosition Z Position
	 EndSite
	 {
	 OFFSET 0 -1 0
	 }
}
ROOT ll
{
	 OFFSET 0 0 0
	 CHANNELS 3 XPosition YPosition Z Position
	 EndSite
	 {
	 OFFSET 0 -1 0
	 }
}
ROOT tt
{
	 OFFSET 0 0 0
	 CHANNELS 3 XPosition YPosition Z Position
	 EndSite
	 {
	 OFFSET 0 -1 0
	 }
}
ROOT tb
{
	 OFFSET 0 0 0
	 CHANNELS 3 XPosition YPosition Z Position
	 EndSite
	 {
	 OFFSET 0 -1 0
	 }
}
ROOT td
{
	 OFFSET 0 0 0
	 CHANNELS 3 XPosition YPosition Z Position
	 EndSite
	 {
	 OFFSET 0 -1 0
	 }
}
ROOT v
{
	 OFFSET 0 0 0
	 CHANNELS 3 XPosition YPosition Z Position
	 EndSite
	 {
	 OFFSET 0 -1 0
	 }
}
ROOT bn
{
	 OFFSET 0 0 0
	 CHANNELS 3 XPosition YPosition Z Position
	 EndSite
	 {
	 OFFSET 0 -1 0
	 }
}
MOTION
Frames: 21
Frame Time: 0.002
-0.011028401374816895	-0.0053652429580688474	0		0.5640343017578126	-2.4782734375	0		-0.9614085083007813	0.2237867431640625	0		-0.6817863159179688	-2.71169140625	0		2.0383780517578125	-1.1774599609375	0		3.399807861328125	-0.8073873901367188	0		4.557892578125	-0.5509398803710938	0		5.98100537109375	0.4744549255371094	0		-0.19663047790527344	5.91821630859375	0		
-0.003610193967819214	0.001471621036529541	0		0.5165513916015625	-2.46578466796875	0		-0.947041015625	0.22652790832519532	0		-0.6312608642578125	-2.699367919921875	0		2.046684814453125	-1.181603759765625	0		3.428166259765625	-0.8067454833984375	0		4.56130712890625	-0.5449885864257813	0		5.9813232421875	0.4734628601074219	0		-0.18126528930664063	5.92795654296875	0		
0.02574311065673828	0.004037984848022461	0		0.5728762817382812	-2.469524169921875	0		-0.9467247314453126	0.2264167022705078	0		-0.6795740966796875	-2.67190283203125	0		2.0441429443359374	-1.1716278076171875	0		3.3935966796875	-0.7983710327148438	0		4.56976513671875	-0.5340968017578125	0		5.98164697265625	0.47447384643554685	0		-0.16308592224121093	5.92464892578125	0		
-0.0029867210388183595	0.0012698680162429809	0		0.5671483764648437	-2.47654931640625	0		-0.9604600830078125	0.22345387268066405	0		-0.6699022827148438	-2.645130615234375	0		2.039400390625	-1.177634765625	0		3.387800048828125	-0.808338623046875	0		4.55502197265625	-0.5389359130859375	0		5.9770341796875	0.4825458984375	0		-0.19795883178710938	5.91994677734375	0		
-0.006749034881591797	-0.00280225396156311	0		0.5575823364257813	-2.46853955078125	0		-0.9652273559570312	0.2193717041015625	0		-0.6974283447265625	-2.633939453125	0		2.0057716064453124	-1.1723118896484375	0		3.400903564453125	-0.8255309448242187	0		4.55224853515625	-0.544916259765625	0		5.97712109375	0.4665635070800781	0		-0.1978089599609375	5.91982373046875	0		
-0.002441103935241699	0.00102080500125885	0		0.5408366088867187	-2.474457763671875	0		-0.9549834594726563	0.21810165405273438	0		-0.6500000610351563	-2.62563330078125	0		2.006062255859375	-1.1723922119140624	0		3.385326171875	-0.8133916625976563	0		4.55559326171875	-0.53896875	0		5.97345263671875	0.47362753295898435	0		-0.23077302551269532	5.913072265625	0		
-0.0022043089866638182	8.80240023136139E-4	0		0.5451973876953125	-2.469630615234375	0		-0.95475244140625	0.21793556213378906	0		-0.7074571533203124	-2.605120361328125	0		2.0013887939453125	-1.16742138671875	0		3.388642333984375	-0.8084765625	0		4.54994921875	-0.5299182739257813	0		5.98268798828125	0.474542724609375	0		-0.1824892578125	5.9303681640625	0		
0.001040470004081726	0.00369494104385376	0		0.5645703735351563	-2.4619853515625	0		-0.9545484619140625	0.21775759887695312	0		-0.64086376953125	-2.57905615234375	0		2.0016329345703125	-1.1675137939453124	0		3.3917255859375	-0.821562744140625	0		4.5351064453125	-0.53576318359375	0		5.9869765625	0.48251861572265625	0		-0.16252116394042967	5.92398193359375	0		
-0.001811458945274353	5.698410272598266E-4	0		0.5628067016601562	-2.4641044921875	0		-0.958406982421875	0.2146142578125	0		-0.7044466552734375	-2.565498779296875	0		1.9959329833984376	-1.160542724609375	0		3.39795654296875	-0.819686279296875	0		4.53833984375	-0.5328165893554687	0		5.98614404296875	0.48255673217773437	0		-0.16351153564453125	5.924828125	0		
-0.0057033181190490724	-0.0035535891056060792	0		0.5709157104492187	-2.4753466796875	0		-0.92721630859375	0.2180560302734375	0		-0.6330625610351562	-2.553509033203125	0		1.99612548828125	-1.1606458740234376	0		3.36410546875	-0.8223516235351562	0		4.5265126953125	-0.5326970825195313	0		5.98237451171875	0.4906319580078125	0		-0.16454342651367188	5.92566455078125	0		
-0.0015328500270843505	2.2057199478149413E-4	0		0.5632540893554687	-2.4644150390625	0		-0.9581430053710938	0.21419949340820313	0		-0.7005225830078124	-2.524933349609375	0		2.00221044921875	-1.167823486328125	0		3.376200927734375	-0.8275501098632813	0		4.520759765625	-0.5236492919921875	0		5.98329833984375	0.47465234375	0		-0.23079460144042968	5.91123681640625	0		
-0.001436910033226013	3.110699914395809E-5	0		0.5773936767578125	-2.468743408203125	0		-0.9531123657226562	0.20891819763183594	0		-0.6742330932617188	-2.516446044921875	0		1.98944140625	-1.1597916259765626	0		3.367442138671875	-0.8175137329101563	0		4.51885205078125	-0.5256502075195313	0		5.98746826171875	0.48263580322265626	0		-0.1958488311767578	5.916638671875	0		
0.0016651079654693604	0.002797571897506714	0		0.5546361083984375	-2.461659423828125	0		-0.9539610595703125	0.2166939697265625	0		-0.6718309936523438	-2.49569482421875	0		2.0105745849609375	-1.1581549072265624	0		3.37051806640625	-0.8196197509765625	0		4.5119970703125	-0.5205993041992187	0		5.982609375	0.49071914672851563	0		-0.19798126220703124	5.91845458984375	0		
-0.0013275519609451294	-3.769209980964661E-4	0		0.5588859252929688	-2.451892822265625	0		-0.9209756469726562	0.21207398986816406	0		-0.6785564575195312	-2.483850830078125	0		1.980674072265625	-1.1569454345703125	0		3.332502685546875	-0.8272662963867188	0		4.49110546875	-0.5163954467773437	0		5.9826318359375	0.4907418823242187	0		-0.19816899108886718	5.91823828125	0		
-0.0013117719888687135	-5.956429839134216E-4	0		0.5300003662109375	-2.451761474609375	0		-0.96299951171875	0.2092941436767578	0		-0.6782390747070313	-2.466097412109375	0		2.0056434326171875	-1.1653681640625	0		3.354447998046875	-0.8366016235351562	0		4.48807373046875	-0.5224024658203125	0		5.97872998046875	0.4998040771484375	0		-0.1653098449707031	5.92463818359375	0		
-0.0013201650381088257	-8.245260119438172E-4	0		0.5659639282226563	-2.4633740234375	0		-0.9630162963867187	0.20902671813964843	0		-0.6720701293945313	-2.459421630859375	0		1.9866942138671875	-1.164302490234375	0		3.342654052734375	-0.8205618286132812	0		4.49115380859375	-0.516485595703125	0		5.98768994140625	0.4987135009765625	0		-0.23268667602539062	5.913158203125	0		
-0.0013510890007019042	-0.0010637530088424682	0		0.5072385559082031	-2.444928955078125	0		-0.9530675659179687	0.20763633728027345	0		-0.6608899536132813	-2.44981201171875	0		1.99278857421875	-1.157529052734375	0		3.338611572265625	-0.8246204833984375	0		4.4911435546875	-0.51654296875	0		5.99663818359375	0.4986156616210938	0		-0.21784568786621095	5.92274072265625	0		
0.0016307610273361207	0.0016529020071029664	0		0.5632609252929688	-2.4477841796875	0		-0.9480831909179688	0.21129168701171874	0		-0.6887166748046875	-2.438776123046875	0		1.9548089599609375	-1.155272216796875	0		3.34549267578125	-0.8338114624023437	0		4.47808056640625	-0.5194635009765625	0		5.97857861328125	0.49981231689453126	0		-0.20018496704101563	5.91828125	0		
-0.0014726680517196656	-0.0015732430219650268	0		0.5342936401367188	-2.447697509765625	0		-0.953206298828125	0.2070487060546875	0		-0.6486663208007812	-2.43751025390625	0		1.9866842041015624	-1.1648074951171874	0		3.357400390625	-0.8390667114257813	0		4.47496533203125	-0.5255046997070313	0		5.990576171875	0.5076649169921875	0		-0.18155621337890626	5.9128017578125	0		
-0.0015590970516204835	-0.0018433339595794677	0		0.5592523803710937	-2.453222412109375	0		-0.9533014526367187	0.20673883056640624	0		-0.6904817504882812	-2.422342041015625	0		1.986646484375	-1.1649945068359375	0		3.29836376953125	-0.8375411987304687	0		4.4659345703125	-0.5224879150390624	0		5.9863798828125	0.4996902770996094	0		-0.18287875366210937	5.91353515625	0		
-0.001659574031829834	-0.0021232969760894777	0		0.5343125610351562	-2.448202392578125	0		-0.9534107666015625	0.20641856384277343	0		-0.636505126953125	-2.425248291015625	0		1.996406494140625	-1.1822999267578125	0		3.329274658203125	-0.8400242919921875	0		4.45976806640625	-0.5305118408203126	0		5.98743505859375	0.5156517944335938	0		-0.201184326171875	5.9174462890625	0		
